<svg xmlns="http://www.w3.org/2000/svg" fill="none" viewBox="0 0 128 128" id="Image--Streamline-Guidance-Free" height="128" width="128">
  <desc>
    Image Streamline Icon: https://streamlinehq.com
  </desc>
  <path stroke="#000000" d="M120 98.66666666666666h-1.6213333333333333c-5.013333333333333 0 -10.010666666666665 -1.4613333333333334 -13.674666666666667 -4.890666666666666a58.29866666666666 58.29866666666666 0 0 1 -10.991999999999999 -13.994666666666667l-4.373333333333333 -7.781333333333333h-2.6666666666666665l-4.3839999999999995 7.781333333333333a58.25066666666667 58.25066666666667 0 0 1 -9.333333333333332 12.373333333333331 24.554666666666666 24.554666666666666 0 0 1 -10.234666666666666 -5.664 81.55733333333333 81.55733333333333 0 0 1 -15.296 -19.594666666666665L41.33333333333333 56h-2.6559999999999997l-6.085333333333333 10.896a81.6 81.6 0 0 1 -17.525333333333332 21.616 18.88 18.88 0 0 1 -7.066666666666666 3.8506666666666662m0 27.637333333333334v-112h112v112h-112Zm80 -69.33333333333333a10.666666666666666 10.666666666666666 0 1 1 0 -21.333333333333332 10.666666666666666 10.666666666666666 0 0 1 0 21.333333333333332Z" stroke-width="1"></path>
</svg>