<svg width="200" height="200" viewBox="0 0 200 200" fill="none" xmlns="http://www.w3.org/2000/svg">
<path d="M156.663 18.876C129.726 -0.414618 92.9406 -5.19927 61.779 5.81479C45.9949 11.3923 31.2472 20.8169 22.0477 35.0666C12.2495 50.2464 6.9723 69.3137 5.85899 87.2346C3.55547 124.368 26.3691 164.326 66.7669 165.959C63.361 173.315 60.0431 185.264 67.2228 190.467C70.376 192.75 74.5564 192.058 77.541 189.851C78.713 188.985 79.6175 187.927 80.3573 186.768C81.4157 190.684 83.9499 193.962 88.5478 194.929C94.411 196.163 98.2929 192.274 100.86 187.573C101.084 192.224 102.807 196.54 108.065 197.619C114.469 198.932 118.697 194.561 121.555 189.48C123.98 196.218 129.303 202.165 137.22 199.232C147.062 195.586 145.903 183.499 145.883 174.792C211.065 150.477 207.864 55.5401 156.663 18.876ZM145.107 171.181C144.047 170.561 142.298 171.037 142.247 172.663C142.042 179.097 143.688 186.674 139.945 192.398C137.597 195.989 133.265 197.209 129.515 194.953C125.825 192.733 124.439 188.544 123.937 184.484C124.071 184.157 124.207 183.827 124.329 183.508C124.78 182.355 124.013 181.56 123.062 181.368C121.964 180.527 119.986 180.961 120.105 182.708C120.132 183.111 120.184 183.529 120.235 183.946C118.298 188.707 115.216 194.804 109.312 194.076C102.96 193.292 104.226 185.001 105.127 180.637C105.451 179.068 103.92 178.141 102.757 178.427C101.842 178.072 100.646 178.326 100.26 179.535C98.7891 184.151 96.3007 191.717 90.1628 191.45C83.3054 191.15 82.6809 182.765 83.9426 177.806C84.1239 177.098 83.8858 176.539 83.4866 176.14C83.1479 174.358 80.3243 173.787 79.9764 175.86C79.5113 178.638 79.1012 181.653 77.7004 184.144C75.2961 188.421 68.9569 189.877 67.2832 184.116C65.5162 178.03 68.3379 170.522 71.2 165.249C72.2052 163.397 69.7955 161.744 68.4661 162.89C68.1732 162.568 67.7575 162.339 67.2027 162.321C31.9631 161.145 9.91121 127.825 9.35089 95.0168C9.04876 77.4694 13.4342 59.0943 21.4435 43.4658C29.6322 27.484 43.684 16.6439 60.2646 10.2589C117.635 -11.8297 184.715 23.7376 191.24 86.4235C194.801 120.643 178.786 158.399 145.107 171.181Z" fill="#CC751B"/>
<path d="M112.088 141.693C111.722 141.452 111.361 141.366 111.028 141.391C110.506 140.974 109.79 140.78 109.032 141.115C105.28 142.774 102.268 145.656 100.562 149.408C99.3989 151.966 97.8791 156.78 100.542 158.992C103.226 161.222 106.306 158.529 107.954 156.434C108.598 155.613 109.164 154.762 109.681 153.889C110.532 159.045 112.74 163.416 117.994 160.574C126.695 155.87 116.957 144.902 112.088 141.693ZM114.967 157.197C114.808 157.12 114.685 156.983 114.546 156.873C114.789 156.751 114.994 156.564 115.165 156.324C115.687 156.582 116.23 156.807 116.794 157C116.39 157.439 115.8 157.6 114.967 157.197Z" fill="#CC751B"/>
<path d="M71.9159 136.839C67.1459 136.694 65.7286 142.338 68.3928 145.313C67.3052 145.24 66.2321 144.89 65.3825 144.288C60.0595 140.521 66.2102 133.693 69.497 131.04C71.3317 129.559 68.7261 126.982 66.9078 128.451C62.3685 132.115 57.4282 138.709 60.8634 144.706C63.3665 149.075 69.7625 150.235 73.833 147.467C78.1251 144.55 78.0977 137.026 71.9159 136.839Z" fill="#CC751B"/>
<path d="M154.061 130.346C151.719 130.485 151.702 134.147 154.061 134.008C159.161 133.706 160.356 139.34 158.175 142.973C157.373 144.312 156.123 145.584 154.643 146.205C154.784 146.002 154.922 145.797 155.041 145.539C155.92 143.631 155.465 141.109 153.556 140.009C148.309 136.984 144.486 145.008 148.555 148.609C153.479 152.969 160.179 148.111 162.176 143.133C164.548 137.231 160.975 129.938 154.061 130.346Z" fill="#CC751B"/>
<path d="M126.638 157.487C125.9 159.885 123.725 161.663 121.204 161.825C118.864 161.975 118.847 165.639 121.204 165.487C125.39 165.219 128.931 162.484 130.169 158.459C130.863 156.203 127.331 155.238 126.638 157.487Z" fill="#CC751B"/>
<path d="M133.227 160.286C132.507 162.367 131.181 164.236 129.412 165.556C128.614 166.151 128.228 167.133 128.755 168.061C129.204 168.847 130.471 169.308 131.26 168.719C133.849 166.789 135.699 164.318 136.759 161.26C137.53 159.028 133.994 158.069 133.227 160.286Z" fill="#CC751B"/>
<path d="M56.1977 146.132C52.4659 146.531 49.1754 142.816 50.3071 139.15C51.0047 136.894 47.4707 135.929 46.7749 138.176C44.995 143.938 50.1184 150.442 56.1977 149.792C58.5177 149.545 58.5433 145.881 56.1977 146.132Z" fill="#CC751B"/>
<path d="M46.5406 150.091C43.078 149.084 40.5126 146.361 39.641 142.873C39.0697 140.587 35.5375 141.556 36.1088 143.847C37.288 148.562 40.9099 152.268 45.5664 153.623C47.8352 154.282 48.802 150.75 46.5406 150.091Z" fill="#CC751B"/>
<path d="M182.333 75.5779C181.379 73.4281 178.22 75.2903 179.171 77.4272C181.302 82.2247 181.85 87.3848 180.828 92.5283C180.37 94.83 183.901 95.8152 184.36 93.5025C185.589 87.3116 184.895 81.3403 182.333 75.5779Z" fill="#CC751B"/>
<path d="M175.166 82.818C174.135 80.6994 170.977 82.5543 172.004 84.6674C173.798 88.3498 173.846 92.3232 172.403 96.1264C171.566 98.3329 175.106 99.2851 175.935 97.1006C177.733 92.3599 177.373 87.3481 175.166 82.818Z" fill="#CC751B"/>
<path d="M66.6442 11.3941C61.2681 12.87 56.5567 15.9334 53.1106 20.328C51.6732 22.1628 54.2477 24.7721 55.7016 22.9172C58.7815 18.9895 62.7953 16.2502 67.6184 14.9263C69.8889 14.3037 68.9258 10.7679 66.6442 11.3941Z" fill="#CC751B"/>
<path d="M74.9299 13.4047C70.918 14.7103 67.318 16.7098 64.0587 19.385C62.2367 20.881 64.8406 23.4592 66.6497 21.9742C69.4018 19.7146 72.5202 18.0374 75.9041 16.9351C78.1362 16.2099 77.1803 12.6722 74.9299 13.4047Z" fill="#CC751B"/>
<path d="M117.536 38.0623C115.188 37.8682 115.201 41.5304 117.536 41.7245C119.354 41.8746 120.458 43.7149 120.292 45.3958C120.195 46.381 121.202 47.2269 122.123 47.2269C123.194 47.2269 123.855 46.3846 123.954 45.3958C124.328 41.6018 121.2 38.3644 117.536 38.0623Z" fill="#CC751B"/>
<path d="M132.119 46.738C131.815 44.6011 131.509 42.4661 131.203 40.3292C131.062 39.3422 129.819 38.8222 128.951 39.0511C127.896 39.3294 127.534 40.3291 127.671 41.3033C127.975 43.4402 128.281 45.5752 128.587 47.7121C128.728 48.6991 129.971 49.2191 130.839 48.9902C131.895 48.7119 132.258 47.7122 132.119 46.738Z" fill="#CC751B"/>
</svg>
